<svg width="896" height="696" viewBox="0 0 896 696" fill="none" xmlns="http://www.w3.org/2000/svg">
<g clip-path="url(#clip0)">
<rect x="1" y="57" width="358" height="638" rx="29" fill="#E5E2DB"/>
<circle cx="180" cy="672" r="14" stroke="#B8B6B3" stroke-width="2"/>
<rect x="50.5" y="48.5" width="259" height="41" stroke="#B8B6B3"/>
<path d="M147 69H213" stroke="#B8B6B3" stroke-width="2"/>
<rect x="16" y="134" width="327" height="147" stroke="#B8B6B3" stroke-width="2"/>
<rect x="16" y="495" width="327" height="127" stroke="#B8B6B3" stroke-width="2"/>
<rect x="16" y="307" width="327" height="66" stroke="#B8B6B3" stroke-width="2"/>
<path d="M26.5 410H162" stroke="#B8B6B3" stroke-width="2"/>
<path d="M26.489 428.5H231.011" stroke="#B8B6B3" stroke-width="2"/>
<path d="M26.5 450H286.5" stroke="#B8B6B3" stroke-width="2"/>
<circle cx="180" cy="208" r="24" stroke="#B8B6B3" stroke-width="2"/>
<path d="M176 200L190 209L176 218V200Z" stroke="#B8B6B3" stroke-width="2" stroke-linecap="round" stroke-linejoin="round"/>
<path d="M-1 645H358" stroke="#B8B6B3" stroke-width="2"/>
<path d="M291 108H323.5" stroke="#B8B6B3" stroke-width="2"/>
<path d="M291 118H323.5" stroke="#B8B6B3" stroke-width="2"/>
<circle cx="338" cy="114" r="9" fill="white" stroke="black" stroke-width="2"/>
</g>
<rect x="1" y="57" width="358" height="638" rx="29" stroke="black" stroke-width="2"/>
<g clip-path="url(#clip1)">
<rect x="471" y="57" width="358" height="638" rx="29" fill="#E5E2DB"/>
<circle cx="650" cy="672" r="14" stroke="#B8B6B3" stroke-width="2"/>
<rect x="520.5" y="48.5" width="259" height="41" stroke="#B8B6B3"/>
<path d="M617 69H683" stroke="#B8B6B3" stroke-width="2"/>
<path d="M469 645H828" stroke="#B8B6B3" stroke-width="2"/>
<path d="M758 120L794.5 148" stroke="#B8B6B3" stroke-width="2"/>
<path d="M794.5 120L758 148" stroke="#B8B6B3" stroke-width="2"/>
<path d="M515.5 182.5H721" stroke="#B8B6B3" stroke-width="2"/>
<path d="M515 271H775.558" stroke="#B8B6B3" stroke-width="2"/>
<path d="M515.467 456.049H683.005" stroke="#B8B6B3" stroke-width="2"/>
<path d="M645.467 596.049H813.005" stroke="#B8B6B3" stroke-width="2"/>
<path d="M515 363H775.558" stroke="#B8B6B3" stroke-width="2"/>
</g>
<rect x="471" y="57" width="358" height="638" rx="29" stroke="black" stroke-width="2"/>
<path d="M338.889 106.658C338.889 106.658 327.889 37.1576 338.889 18.6578C349.889 0.157999 867.556 -6.84196 884.888 12.658C902.22 32.1579 891.388 114.658 884.888 131.658C878.389 148.658 834.388 138.658 834.388 138.658M834.388 138.658L840.944 132.829L847.5 127M834.388 138.658L840.944 144.487L847.5 150.316" stroke="black" stroke-width="2"/>
<defs>
<clipPath id="clip0">
</clipPath>
<clipPath id="clip1">
</clipPath>
</defs>
</svg>
