<svg width="169" height="169" viewBox="0 0 169 169" fill="none" xmlns="http://www.w3.org/2000/svg">
<path d="M90.9767 95.525L89.5519 96.9285L90.8936 98.2905L92.3147 97.0116L90.9767 95.525ZM88.6667 93.18L90.0915 91.7765L88.8136 90.4791L87.4025 91.6303L88.6667 93.18ZM75.0867 93.67L73.9219 95.2959L73.9334 95.3039L75.0867 93.67ZM73.9667 85.305L75.5454 86.5329L75.552 86.5245L75.5584 86.516L73.9667 85.305ZM77.4667 82.435L78.4357 84.1846L80.7584 82.8982L78.881 81.0208L77.4667 82.435ZM76.8017 73.65L78.1082 75.1643L78.1082 75.1643L76.8017 73.65ZM86.4617 73.615L85.1725 75.144L85.1798 75.1502L85.1872 75.1563L86.4617 73.615ZM87.5117 80.65L89.2183 81.6929L89.2246 81.6826L89.2308 81.6722L87.5117 80.65ZM85.2017 83.1L83.9788 81.5174L82.2055 82.8877L83.7679 84.4943L85.2017 83.1ZM88.9117 86.915L87.4779 88.3093L89.4058 90.2918L90.6849 87.8401L88.9117 86.915ZM89.3317 84.29V82.29H87.3317V84.29H89.3317ZM93.5667 84.29H95.5667V82.29H93.5667V84.29ZM93.1467 87.755L91.2443 87.138L91.2443 87.138L93.1467 87.755ZM92.0617 89.96L90.447 88.78L89.4363 90.163L90.6475 91.3742L92.0617 89.96ZM94.4767 92.375L95.8147 93.8616L97.3816 92.4514L95.891 90.9608L94.4767 92.375ZM81.5617 80.825L80.3617 82.425L81.4486 83.2401L82.6069 82.5302L81.5617 80.825ZM83.2067 79.565L84.6631 80.9357L84.6826 80.915L84.7016 80.8937L83.2067 79.565ZM83.2417 76.45L81.6979 77.7214L81.7387 77.771L81.7827 77.8179L83.2417 76.45ZM80.0567 76.485L78.5203 75.2046L78.5129 75.2136L80.0567 76.485ZM80.0567 79.39L78.4183 80.5369L78.4371 80.5638L78.4567 80.59L80.0567 79.39ZM85.2367 90.17L86.6142 91.62L88.0841 90.2237L86.6679 88.7729L85.2367 90.17ZM80.9317 85.76L82.3629 84.3629L81.3983 83.3749L80.1326 83.9266L80.9317 85.76ZM78.8667 87.125L80.315 88.5043L80.331 88.4875L80.3466 88.4703L78.8667 87.125ZM79.0767 90.87L80.2152 89.2256L80.2152 89.2256L79.0767 90.87ZM92.4015 94.1215L90.0915 91.7765L87.2419 94.5835L89.5519 96.9285L92.4015 94.1215ZM87.4025 91.6303C86.0902 92.7008 84.1728 93.35 81.4217 93.35V97.35C84.784 97.35 87.6966 96.5525 89.931 94.7297L87.4025 91.6303ZM81.4217 93.35C79.0534 93.35 77.3878 92.8462 76.2401 92.0361L73.9334 95.3039C75.9591 96.7338 78.5168 97.35 81.4217 97.35V93.35ZM76.2515 92.0442C75.1936 91.2863 74.7417 90.389 74.7417 89.19H70.7417C70.7417 91.7243 71.8532 93.8137 73.922 95.2958L76.2515 92.0442ZM74.7417 89.19C74.7417 88.0215 75.0436 87.1781 75.5454 86.5329L72.388 84.0771C71.2565 85.5319 70.7417 87.2785 70.7417 89.19H74.7417ZM75.5584 86.516C76.1665 85.7169 77.0952 84.927 78.4357 84.1846L76.4977 80.6854C74.8049 81.623 73.4003 82.7465 72.3751 84.094L75.5584 86.516ZM78.881 81.0208C78.2196 80.3595 77.731 79.7463 77.3869 79.1849L73.9765 81.2751C74.5191 82.1604 75.2205 83.0172 76.0525 83.8492L78.881 81.0208ZM77.3869 79.1849C77.1691 78.8295 77.0167 78.3426 77.0167 77.64H73.0167C73.0167 78.9441 73.3077 80.1839 73.9765 81.2751L77.3869 79.1849ZM77.0167 77.64C77.0167 76.5622 77.3779 75.7943 78.1082 75.1643L75.4953 72.1357C73.8455 73.559 73.0167 75.4512 73.0167 77.64H77.0167ZM78.1082 75.1643C78.8397 74.5332 79.9384 74.11 81.6317 74.11V70.11C79.2651 70.11 77.1438 70.7135 75.4953 72.1357L78.1082 75.1643ZM81.6317 74.11C83.3357 74.11 84.4409 74.5272 85.1725 75.144L87.7509 72.086C86.1026 70.6961 83.9878 70.11 81.6317 70.11V74.11ZM85.1872 75.1563C85.907 75.7515 86.2817 76.5105 86.2817 77.64H90.2817C90.2817 75.4095 89.4432 73.4852 87.7363 72.0737L85.1872 75.1563ZM86.2817 77.64C86.2817 78.4743 86.0978 79.1146 85.7927 79.6278L89.2308 81.6722C89.9523 80.4587 90.2817 79.0924 90.2817 77.64H86.2817ZM85.8052 79.6071C85.4521 80.1848 84.8707 80.8283 83.9788 81.5174L86.4246 84.6826C87.5861 83.7851 88.5447 82.7952 89.2183 81.6929L85.8052 79.6071ZM83.7679 84.4943L87.4779 88.3093L90.3455 85.5207L86.6355 81.7057L83.7679 84.4943ZM90.6849 87.8401C91.1529 86.9431 91.3317 85.939 91.3317 84.92H87.3317C87.3317 85.4877 87.2305 85.8136 87.1386 85.9899L90.6849 87.8401ZM91.3317 84.92V84.29H87.3317V84.92H91.3317ZM89.3317 86.29H93.5667V82.29H89.3317V86.29ZM91.5667 84.29V85.095H95.5667V84.29H91.5667ZM91.5667 85.095C91.5667 85.7961 91.4595 86.4745 91.2443 87.138L95.0492 88.372C95.394 87.3089 95.5667 86.2139 95.5667 85.095H91.5667ZM91.2443 87.138C91.0166 87.8401 90.7423 88.3758 90.447 88.78L93.6765 91.14C94.2679 90.3308 94.7169 89.3965 95.0492 88.372L91.2443 87.138ZM90.6475 91.3742L93.0625 93.7892L95.891 90.9608L93.476 88.5458L90.6475 91.3742ZM93.1388 90.8884L89.6388 94.0384L92.3147 97.0116L95.8147 93.8616L93.1388 90.8884ZM82.6069 82.5302C83.4074 82.0395 84.1203 81.5125 84.6631 80.9357L81.7503 78.1943C81.5465 78.4108 81.1627 78.7238 80.5166 79.1198L82.6069 82.5302ZM84.7016 80.8937C85.4639 80.0361 85.7667 78.9814 85.7667 77.92H81.7667C81.7667 78.0752 81.7454 78.1592 81.7334 78.1942C81.7233 78.224 81.716 78.2317 81.7119 78.2363L84.7016 80.8937ZM85.7667 77.92C85.7667 76.9055 85.4613 75.8933 84.7008 75.0821L81.7827 77.8179C81.777 77.8119 81.7696 77.8025 81.7626 77.791C81.7556 77.7796 81.7525 77.7716 81.752 77.7702C81.7508 77.7668 81.7667 77.8086 81.7667 77.92H85.7667ZM84.7856 75.1786C83.9541 74.1689 82.7702 73.855 81.7017 73.855V77.855C81.8694 77.855 81.9173 77.8795 81.8909 77.8693C81.8757 77.8635 81.8446 77.8493 81.8057 77.8217C81.7663 77.7938 81.7291 77.7593 81.6979 77.7214L84.7856 75.1786ZM81.7017 73.855C80.5906 73.855 79.3759 74.1779 78.5203 75.2046L81.5932 77.7654C81.5673 77.7965 81.5365 77.8246 81.5048 77.8468C81.4736 77.8687 81.4512 77.8781 81.4458 77.8802C81.439 77.8828 81.5094 77.855 81.7017 77.855V73.855ZM78.5129 75.2136C77.8642 76.0013 77.5667 76.9407 77.5667 77.92H81.5667C81.5667 77.8363 81.5786 77.7974 81.5819 77.7875C81.5846 77.7799 81.5876 77.7722 81.6006 77.7564L78.5129 75.2136ZM77.5667 77.92C77.5667 78.8883 77.8832 79.7726 78.4183 80.5369L81.6952 78.2431C81.5769 78.0741 81.5667 77.9784 81.5667 77.92H77.5667ZM78.4567 80.59C78.9557 81.2553 79.6124 81.863 80.3617 82.425L82.7617 79.225C82.2044 78.807 81.8578 78.458 81.6567 78.19L78.4567 80.59ZM81.4217 93.5C83.4098 93.5 85.2219 92.9427 86.6142 91.62L83.8592 88.72C83.3849 89.1706 82.6537 89.5 81.4217 89.5V93.5ZM86.6679 88.7729L82.3629 84.3629L79.5006 87.1571L83.8056 91.5671L86.6679 88.7729ZM80.1326 83.9266C79.067 84.3911 78.1069 84.9877 77.3869 85.7797L80.3466 88.4703C80.56 88.2357 80.9765 87.9222 81.7309 87.5934L80.1326 83.9266ZM77.4185 85.7457C76.5373 86.6709 76.1667 87.8379 76.1667 89.05H80.1667C80.1667 88.6755 80.2629 88.5591 80.315 88.5043L77.4185 85.7457ZM76.1667 89.05C76.1667 90.4415 76.7459 91.6889 77.9383 92.5144L80.2152 89.2256C80.2 89.2151 80.1899 89.2069 80.184 89.2017C80.178 89.1965 80.1755 89.1936 80.1753 89.1934C80.1751 89.1932 80.1764 89.1946 80.1783 89.1974C80.1802 89.2003 80.1819 89.2032 80.1831 89.2056C80.192 89.2234 80.1667 89.1887 80.1667 89.05H76.1667ZM77.9383 92.5144C78.9661 93.2259 80.1781 93.5 81.4217 93.5V89.5C80.752 89.5 80.4008 89.3541 80.2152 89.2256L77.9383 92.5144Z" fill="#C97173"/>
<path d="M53.8362 115.086C36.9548 98.2049 36.9548 70.8346 53.8362 53.9532C70.7177 37.0717 98.0879 37.0717 114.969 53.9532M53.8362 115.086C70.7177 131.968 98.0879 131.968 114.969 115.086C131.851 98.2049 131.851 70.8346 114.969 53.9532M53.8362 115.086L114.969 53.9532M53.8362 115.086L31.3698 137.553M114.969 53.9532L137.436 31.4867" stroke="#C97173" stroke-width="3"/>
</svg>
